<?xml version="1.0" encoding="utf-8"?>
<!-- Generator: Adobe Illustrator 26.1.0, SVG Export Plug-In . SVG Version: 6.00 Build 0)  -->
<svg version="1.1" xmlns="http://www.w3.org/2000/svg" xmlns:xlink="http://www.w3.org/1999/xlink" x="0px" y="0px"
	 viewBox="0 0 250 250" style="enable-background:new 0 0 250 250;" xml:space="preserve">
<style type="text/css">
	.st0{display:none;}
	.st1{fill:#FFFFFF;}
	.st2{fill:#231F20;}
</style>
<g id="Layer_2" class="st0">
</g>
<g id="a">
	<circle class="st1" cx="125" cy="125" r="125"/>
	<g>
		<path class="st2" d="M171.5,144.7l-13-36.2c0.2-0.4,0.5-0.8,0.7-1.2c3.9-7.3,5.8-15.6,5.8-24.8c0-16.2-6.2-28.2-18.5-36.1
			c-4-2.6-8.8-4.7-14.2-6.5l2.5-5.4h25.5l54.3,146c2.6,6.8,4.8,12,6.8,15.6c2,3.6,4.3,6.2,7.1,8.2s6.6,3.5,11.4,4.5v6.4h-73.7v-6.4
			c5.3-0.9,9.3-1.8,11.9-2.9c2.6-1,4.6-2.5,5.8-4.4c1.3-1.9,1.9-4.2,1.9-7.4c0-3-0.4-6.2-1.3-9.6c-0.9-3.5-2.1-7.3-3.7-11.6
			L171.5,144.7L171.5,144.7z"/>
		<path class="st2" d="M104.6,144.7l3.3-7.7c-6.7,0.9-13.7,1.4-20.9,1.4l-18.9,41.2c-2.6,5.6-5.2,10.3-7.9,14.3c0,0.1-1.9,2.4-2.3,3
			s-2,2.1-2,2.1s1.3,3.8,2.8,5.6s3.4,3.2,5.9,4.2c2.5,1,11.7,3,11.7,3v3.6H108v-6.4c-6.7-0.6-11.7-2.4-15-4.9
			c-3.3-2.5-4.9-6.3-4.9-11.5c0-2.7,0.4-5.5,1.3-8.9s2.7-8.2,5.4-14.7L104.6,144.7L104.6,144.7z"/>
		<path class="st2" d="M115.4,119.8l16.9-39.3c-0.5-5.2-1.6-9.7-3.5-13.5c-1.5-3-3.2-5.6-5.3-7.9l-30.8,67
			c5.8-0.6,10.9-1.7,15.4-3.1C110.7,122.1,113.1,121.1,115.4,119.8z"/>
	</g>
	<g>
		<path d="M132.3,80.5c0.2,1.8,0.2,3.6,0.2,5.5c0,10-2.1,18-6.3,24c-2.8,4-6.4,7.3-10.9,9.8l-7.4,17.2c3.3-0.4,6.4-1,9.6-1.6
			c9.7-2,18.1-5.4,25.2-10.1c6.7-4.4,12-10,15.8-16.8l-17.4-48.4L132.3,80.5L132.3,80.5z"/>
		<path d="M90.3,34.7h-80v6.5c4.9,1.1,8.4,2.2,10.5,3.1c2,0.9,3.7,2.2,4.9,3.7c1.2,1.5,2.1,3.7,2.7,6.5c0.5,2.8,0.8,7.2,0.8,13.3
			v114.5c0,6.5-0.3,11.4-1,14.6c-0.7,3.2-2.2,5.6-4.4,7.3s-6.7,3.3-13.4,4.7v6.5h70.8v-6.5c-5.3-1-9.1-2-11.6-3
			c-2.5-1-4.4-2.4-5.9-4.2c-1.5-1.8-2.5-4.3-3.2-7.3c0-0.1,0-0.1,0-0.2c-0.7-3.1-1-7.1-1-12.2v-43.9c6.6,0.3,15.8,0.5,27.8,0.5h0
			l5.6-12.3c-4.5,0.5-9.4,0.8-14.7,0.8H59.3V46.8c5.4-0.3,13.4-0.5,24-0.5c7.1,0,13.7,0.6,19.7,1.9c6,1.3,11.2,3.5,15.6,6.6
			c1.8,1.3,3.4,2.7,4.9,4.4l8.8-19.1C121.2,36.5,107.2,34.7,90.3,34.7z"/>
	</g>
</g>
</svg>
