<?xml version="1.0" encoding="UTF-8"?><svg id="a" xmlns="http://www.w3.org/2000/svg" viewBox="0 0 250 196.78"><defs><style>.b{fill:#231f20;}</style></defs><g><path class="b" d="M175.63,119.84l-14.15-39.41c.24-.43,.5-.85,.74-1.29,4.22-7.98,6.33-16.96,6.33-26.96,0-17.59-6.71-30.68-20.12-39.28-4.4-2.82-9.58-5.17-15.49-7.07l2.68-5.83h27.78l59.1,158.98c2.79,7.43,5.25,13.1,7.4,17,2.15,3.91,4.73,6.75,7.75,8.94,3.02,2.19,7.14,3.81,12.37,4.86v7h-80.29v-7c5.8-.95,10.13-2,12.98-3.14,2.84-1.14,4.96-2.74,6.36-4.79,1.39-2.05,2.09-4.58,2.09-8.01,0-3.24-.47-6.74-1.39-10.5-.93-3.76-2.26-7.98-4.01-12.64l-10.1-30.86Z"/><path class="b" d="M102.83,119.84l3.6-8.35c-7.34,1.01-14.91,1.52-22.72,1.52l-20.59,44.83c-2.81,6.14-5.67,11.18-8.59,15.56,.02,.07-2.04,2.6-2.55,3.25s-2.21,2.29-2.21,2.29c0,0,1.44,4.13,3.02,6.1,1.58,1.97,3.72,3.51,6.41,4.61,2.69,1.11,12.69,3.24,12.69,3.24v3.87h34.6v-7c-7.32-.64-12.74-2.62-16.29-5.29-3.54-2.67-5.31-6.86-5.31-12.57,0-2.95,.46-6.02,1.39-9.64,.93-3.62,2.9-8.95,5.92-16l10.62-26.43Z"/><path class="b" d="M114.5,92.74l18.45-42.82c-.51-5.66-1.77-10.55-3.78-14.68-1.58-3.24-3.52-6.1-5.81-8.59l-33.52,72.99c6.3-.7,11.9-1.83,16.75-3.42,2.87-.94,5.49-2.12,7.91-3.48Z"/></g><g><path d="M132.95,49.93c.17,1.91,.26,3.91,.26,6,0,10.86-2.28,19.58-6.85,26.16-3.05,4.39-7.01,7.93-11.86,10.65l-8.08,18.75c3.54-.48,7.02-1.07,10.45-1.79,10.55-2.21,19.68-5.86,27.42-10.96,7.31-4.81,13.02-10.93,17.19-18.31l-18.94-52.74-9.58,22.23Z"/><path d="M87.17,0H0V7.06c5.39,1.25,9.2,2.38,11.42,3.39,2.22,1.01,4.01,2.36,5.36,4.04,1.35,1.68,2.31,4.04,2.9,7.06,.59,3.03,.88,7.86,.88,14.49v124.69c0,7.11-.38,12.4-1.14,15.86-.76,3.46-2.37,6.13-4.83,8s-7.32,3.58-14.59,5.12v7.06H77.15v-7.06c-5.74-1.06-9.96-2.14-12.65-3.24-2.7-1.1-4.83-2.64-6.41-4.61-1.58-1.97-2.75-4.64-3.51-8-.02-.07-.03-.15-.04-.22-.73-3.34-1.1-7.78-1.1-13.33v-47.86c7.14,.38,17.22,.58,30.23,.58h.05l6.14-13.37c-4.91,.54-10.23,.83-16.03,.83h-20.39V13.26c5.86-.38,14.59-.58,26.19-.58,7.73,0,14.88,.7,21.44,2.09,6.56,1.39,12.21,3.77,16.96,7.14,1.96,1.39,3.74,2.98,5.35,4.74l9.56-20.82C120.82,1.95,105.58,0,87.17,0Z"/></g></svg>