<svg width="24" height="24" viewBox="0 0 24 24" fill="none" xmlns="http://www.w3.org/2000/svg">
<path d="M5.14285 5H22.2857L20.5714 15.2857H6.85714L5.14285 5Z" stroke="black" stroke-width="1.5" stroke-linecap="round" stroke-linejoin="round"/>
<path d="M8.57143 21C9.20261 21 9.71429 20.4883 9.71429 19.8572C9.71429 19.226 9.20261 18.7143 8.57143 18.7143C7.94025 18.7143 7.42857 19.226 7.42857 19.8572C7.42857 20.4883 7.94025 21 8.57143 21Z" stroke="black" stroke-width="1.5" stroke-linecap="round" stroke-linejoin="round"/>
<path d="M18.8572 21C19.4883 21 20 20.4883 20 19.8572C20 19.226 19.4883 18.7143 18.8572 18.7143C18.226 18.7143 17.7143 19.226 17.7143 19.8572C17.7143 20.4883 18.226 21 18.8572 21Z" stroke="black" stroke-width="1.5" stroke-linecap="round" stroke-linejoin="round"/>
<path d="M5.14287 5H1.71429" stroke="black" stroke-width="1.5" stroke-linecap="round" stroke-linejoin="round"/>
</svg>
